<?xml version="1.0" encoding="utf-8"?>
<svg xmlns="http://www.w3.org/2000/svg" fill="none" height="100%" overflow="visible" preserveAspectRatio="none" style="display: block;" viewBox="0 0 2.35938 3.196" width="100%">
<path d="M2.31675 2.54356C2.31675 2.81178 2.34095 3.02534 2.35938 3.12289H2.06701C2.04236 3.04978 2.02439 2.91556 2.01195 2.65333C1.90828 2.87911 1.64011 3.196 1.01208 3.196C0.304805 3.196 0 2.73867 0 2.28111C0 1.61022 0.518361 1.30534 1.43254 1.30534H2.01195V0.994222C2.01195 0.689111 1.92049 0.280446 1.22542 0.280446C0.609827 0.280446 0.518363 0.60378 0.451099 0.85378H0.146301C0.182931 0.518447 0.390048 0 1.23163 0C1.9267 0 2.31675 0.292668 2.31675 0.963779V2.54356ZM2.01817 1.56756H1.42056C0.743912 1.56756 0.323231 1.74445 0.323231 2.26889C0.323231 2.65333 0.597393 2.91556 1.02407 2.91556C1.89607 2.91556 2.01817 2.33622 2.01817 1.67733V1.56756Z" fill="var(--fill-0, #717171)" id="Vector"/>
</svg>